<svg width="125" height="32" viewBox="0 0 125 32" fill="none" xmlns="http://www.w3.org/2000/svg">
<g clip-path="url(#clip0_386_398)">
<path d="M41.6709 18.6245V19.2505H39.5771V26.1724H38.8213V19.2505H36.7188V18.6245H41.6709Z" fill="#09233F"/>
<path d="M44.6289 19.2388V22.0552H47.4893V22.6812H44.6289V25.5415H47.8125V26.1724H43.8721V18.6138H47.8115V19.2388H44.6289Z" fill="#09233F"/>
<path d="M50.4453 20.4C50.7537 19.831 51.2128 19.3579 51.7725 19.0328C52.3431 18.7041 52.9919 18.5354 53.6504 18.5445C54.4922 18.5445 55.2135 18.7441 55.8144 19.1432C56.4217 19.5486 56.8825 20.1385 57.1289 20.8258H56.2402C56.0408 20.3357 55.6963 19.9183 55.2529 19.6295C54.8109 19.3411 54.2767 19.1972 53.6504 19.1979C53.1259 19.1904 52.6091 19.3254 52.1553 19.5885C51.7082 19.8523 51.3467 20.2395 51.1143 20.7037C50.8535 21.228 50.7238 21.8077 50.7363 22.3932C50.7232 22.9768 50.853 23.5547 51.1143 24.0768C51.3475 24.5393 51.7089 24.9251 52.1553 25.1881C52.6091 25.4512 53.1259 25.5862 53.6504 25.5787C54.276 25.5787 54.8102 25.4368 55.2529 25.1529C55.6949 24.869 56.0394 24.4567 56.2402 23.9713H57.1289C56.8819 24.6565 56.4197 25.2433 55.8115 25.6441C55.2067 26.0393 54.4873 26.2369 53.6533 26.2369C52.9948 26.246 52.3461 26.0773 51.7754 25.7486C51.2163 25.4228 50.7573 24.9499 50.4482 24.3815C50.1287 23.7672 49.9619 23.085 49.9619 22.3927C49.9619 21.7003 50.1287 21.0181 50.4482 20.4039L50.4453 20.4Z" fill="#09233F"/>
<path d="M65.2344 18.6245V26.1724H64.4785V22.6392H60.3848V26.1724H59.6299V18.6245H60.3848V22.0132H64.4756V18.6245H65.2344Z" fill="#09233F"/>
<path d="M73.6494 26.1724H72.8936L68.7168 19.8247V26.1724H67.9609V18.6245H68.7168L72.8936 24.9595V18.6245H73.6494V26.1724Z" fill="#09233F"/>
<path d="M77.8584 25.7534C77.2934 25.4299 76.8284 24.9568 76.5147 24.3862C76.192 23.7721 76.0234 23.0888 76.0234 22.395C76.0234 21.7013 76.192 21.018 76.5147 20.4038C76.8284 19.8332 77.2934 19.3602 77.8584 19.0366C78.4417 18.7152 79.0968 18.5466 79.7627 18.5466C80.4287 18.5466 81.0838 18.7152 81.667 19.0366C82.2313 19.3593 82.6945 19.8327 83.0049 20.4038C83.3244 21.0189 83.4913 21.7019 83.4913 22.395C83.4913 23.0882 83.3244 23.7711 83.0049 24.3862C82.6945 24.9573 82.2313 25.4307 81.667 25.7534C81.0838 26.0749 80.4287 26.2434 79.7627 26.2434C79.0968 26.2434 78.4417 26.0749 77.8584 25.7534ZM81.2686 25.1968C81.7192 24.9324 82.0854 24.5453 82.3242 24.0806C82.5806 23.5546 82.7139 22.9772 82.7139 22.3921C82.7139 21.807 82.5806 21.2296 82.3242 20.7036C82.0839 20.2406 81.7171 19.8553 81.2666 19.5923C80.8039 19.3374 80.2842 19.2037 79.7559 19.2037C79.2276 19.2037 78.7079 19.3374 78.2451 19.5923C77.7953 19.8556 77.4293 20.2409 77.1895 20.7036C76.9337 21.2291 76.8008 21.8058 76.8008 22.3902C76.8008 22.9745 76.9337 23.5512 77.1895 24.0767C77.4284 24.5427 77.7953 24.9309 78.2471 25.1958C78.7098 25.4507 79.2295 25.5844 79.7578 25.5844C80.2861 25.5844 80.8059 25.4507 81.2686 25.1958V25.1968Z" fill="#09233F"/>
<path d="M86.6328 25.5532H89.3418V26.1724H85.877V18.6245H86.6328V25.5532Z" fill="#09233F"/>
<path d="M92.9141 25.7534C92.349 25.4299 91.8841 24.9568 91.5703 24.3862C91.2477 23.7721 91.0791 23.0888 91.0791 22.395C91.0791 21.7013 91.2477 21.018 91.5703 20.4038C91.8841 19.8332 92.349 19.3602 92.9141 19.0366C93.4973 18.7152 94.1524 18.5466 94.8184 18.5466C95.4843 18.5466 96.1394 18.7152 96.7227 19.0366C97.2869 19.3593 97.7502 19.8327 98.0606 20.4038C98.3801 21.0189 98.5469 21.7019 98.5469 22.395C98.5469 23.0882 98.3801 23.7711 98.0606 24.3862C97.7502 24.9573 97.2869 25.4307 96.7227 25.7534C96.1394 26.0749 95.4843 26.2434 94.8184 26.2434C94.1524 26.2434 93.4973 26.0749 92.9141 25.7534ZM96.3242 25.1968C96.7756 24.9327 97.1425 24.5455 97.3819 24.0806C97.6376 23.5551 97.7705 22.9784 97.7705 22.3941C97.7705 21.8097 97.6376 21.233 97.3819 20.7075C97.1415 20.2445 96.7748 19.8592 96.3242 19.5962C95.8615 19.3413 95.3418 19.2076 94.8135 19.2076C94.2852 19.2076 93.7655 19.3413 93.3028 19.5962C92.8527 19.8584 92.4858 20.2422 92.2442 20.7036C91.9884 21.2291 91.8555 21.8058 91.8555 22.3902C91.8555 22.9745 91.9884 23.5512 92.2442 24.0767C92.4838 24.5425 92.8509 24.9307 93.3028 25.1958C93.7655 25.4507 94.2852 25.5844 94.8135 25.5844C95.3418 25.5844 95.8615 25.4507 96.3242 25.1958V25.1968Z" fill="#09233F"/>
<path d="M106.869 20.8257C106.665 20.3445 106.321 19.936 105.881 19.6538C105.413 19.3623 104.87 19.2142 104.318 19.2281C103.789 19.2201 103.267 19.355 102.808 19.6187C102.361 19.8817 101.997 20.2647 101.758 20.7242C101.502 21.2437 101.369 21.815 101.369 22.3941C101.369 22.9731 101.502 23.5445 101.758 24.064C101.998 24.527 102.365 24.9123 102.815 25.1753C103.263 25.4218 103.764 25.5551 104.274 25.5636C104.785 25.5721 105.29 25.4556 105.745 25.2242C106.166 24.9974 106.517 24.6596 106.76 24.2476C107.024 23.7998 107.174 23.2942 107.197 22.7749H104.024V22.1685H107.996V22.7193C107.968 23.3538 107.783 23.9714 107.456 24.5161C107.139 25.0445 106.69 25.4808 106.152 25.7818C105.594 26.095 104.963 26.255 104.322 26.2456C103.657 26.2547 103.001 26.0862 102.423 25.7574C101.858 25.4338 101.393 24.9607 101.079 24.3902C100.757 23.7758 100.589 23.0926 100.589 22.399C100.589 21.7053 100.757 21.0221 101.079 20.4077C101.393 19.8372 101.858 19.3641 102.423 19.0406C103.042 18.7005 103.74 18.5318 104.446 18.5519C105.151 18.572 105.839 18.7801 106.438 19.1548C107.045 19.5608 107.506 20.1504 107.755 20.8374L106.869 20.8257Z" fill="#09233F"/>
<path d="M111.133 18.6245V26.1724H110.377V18.6245H111.133Z" fill="#09233F"/>
<path d="M114.606 19.2388V22.0552H117.467V22.6812H114.606V25.5415H117.79V26.1724H113.852V18.6138H117.79V19.2388H114.606Z" fill="#09233F"/>
<path d="M121.261 25.9847C120.904 25.8292 120.596 25.5794 120.37 25.262C120.156 24.9579 120.036 24.5976 120.024 24.2259H120.823C120.862 24.5968 121.036 24.9406 121.312 25.1917C121.599 25.4691 122.02 25.6074 122.574 25.6068C123.085 25.6068 123.49 25.4766 123.789 25.2161C123.933 25.0936 124.048 24.9404 124.126 24.7678C124.203 24.5951 124.241 24.4073 124.236 24.2181C124.25 23.9364 124.162 23.6592 123.988 23.4368C123.824 23.2393 123.612 23.0868 123.373 22.9935C123.041 22.8687 122.702 22.7624 122.358 22.6751C121.95 22.5712 121.55 22.4377 121.161 22.2757C120.861 22.1433 120.601 21.9353 120.405 21.6722C120.196 21.3988 120.092 21.028 120.093 20.5599C120.088 20.1906 120.193 19.8281 120.395 19.5189C120.606 19.2045 120.901 18.9558 121.247 18.8011C121.644 18.6222 122.075 18.5338 122.51 18.5423C123.208 18.5423 123.771 18.7129 124.199 19.054C124.405 19.2131 124.577 19.4123 124.704 19.6395C124.831 19.8668 124.911 20.1174 124.938 20.3763H124.118C124.056 20.0482 123.875 19.7545 123.61 19.5511C123.323 19.3096 122.935 19.1891 122.445 19.1898C122.037 19.1747 121.636 19.3025 121.312 19.5511C121.163 19.6682 121.045 19.8188 120.966 19.9904C120.888 20.162 120.851 20.3498 120.858 20.5384C120.845 20.8156 120.934 21.088 121.106 21.305C121.274 21.5008 121.488 21.6526 121.728 21.7474C122.057 21.8748 122.394 21.9828 122.736 22.0706C123.141 22.1785 123.538 22.3139 123.924 22.4759C124.227 22.6098 124.491 22.8197 124.689 23.0853C124.898 23.3587 125.003 23.7259 125.003 24.1868C125.002 24.5404 124.906 24.8872 124.723 25.1898C124.523 25.5183 124.235 25.784 123.892 25.9564C123.483 26.1607 123.031 26.2613 122.574 26.2493C122.122 26.2574 121.674 26.1671 121.261 25.9847Z" fill="#09233F"/>
<path d="M84.6055 5.75635V8.0708H81.0342V15.7593H78.7207V8.0708H75.085V5.75635H84.6055Z" fill="#09233F"/>
<path d="M46.2373 5.75635V8.0708H42.666V15.7593H40.3516V8.0708H36.7168V5.75635H46.2373Z" fill="#09233F"/>
<path d="M86.3574 8.91553V12.6353C86.3574 13.4685 86.6884 14.2675 87.2776 14.8567C87.8667 15.4459 88.6658 15.7769 89.499 15.7769H92.8877C93.7209 15.7769 94.52 15.4459 95.1091 14.8567C95.6983 14.2675 96.0293 13.4685 96.0293 12.6353V8.91553C96.029 8.08249 95.6979 7.28366 95.1088 6.69471C94.5197 6.10576 93.7207 5.7749 92.8877 5.7749H89.499C89.0865 5.77477 88.678 5.85591 88.2969 6.01369C87.9157 6.17146 87.5694 6.40278 87.2776 6.69442C86.9859 6.98607 86.7545 7.33233 86.5966 7.71344C86.4387 8.09454 86.3574 8.50301 86.3574 8.91553ZM92.3145 13.4624H90.0772C89.8926 13.4624 89.7099 13.4261 89.5394 13.3554C89.3689 13.2848 89.214 13.1813 89.0835 13.0508C88.953 12.9203 88.8495 12.7654 88.7788 12.5949C88.7082 12.4244 88.6719 12.2417 88.6719 12.0571V9.49463C88.6719 9.12184 88.8199 8.7643 89.0834 8.50061C89.3469 8.23691 89.7044 8.08864 90.0772 8.08838H92.3096C92.6824 8.08864 93.0398 8.23691 93.3033 8.50061C93.5668 8.7643 93.7148 9.12184 93.7148 9.49463V12.0571C93.7148 12.4298 93.5668 12.7873 93.3033 13.0508C93.0397 13.3143 92.6823 13.4624 92.3096 13.4624H92.3145Z" fill="#09233F"/>
<path d="M112.46 5.7749H110.146V15.7778H112.46V5.7749Z" fill="#09233F"/>
<path d="M107.773 8.91553V15.7769H105.46V9.49463C105.46 9.12167 105.312 8.76398 105.048 8.50026C104.784 8.23654 104.427 8.08838 104.054 8.08838H101.822C101.449 8.08838 101.092 8.23654 100.828 8.50026C100.564 8.76398 100.416 9.12167 100.416 9.49463V15.7769H98.1025V8.91553C98.1025 8.08258 98.4334 7.28375 99.0224 6.69477C99.6114 6.10579 100.41 5.7749 101.243 5.7749H104.632C105.044 5.77477 105.453 5.85591 105.834 6.01369C106.215 6.17146 106.561 6.40278 106.853 6.69442C107.145 6.98607 107.376 7.33233 107.534 7.71344C107.692 8.09454 107.773 8.50301 107.773 8.91553Z" fill="#09233F"/>
<path d="M118.139 5.93994H125V8.25439H118.717C118.344 8.25439 117.987 8.40245 117.723 8.66599C117.46 8.92953 117.312 9.28697 117.312 9.65967V11.8921C117.312 12.2648 117.46 12.6222 117.723 12.8858C117.987 13.1493 118.344 13.2974 118.717 13.2974H125V15.6118H118.139C117.306 15.6116 116.507 15.2805 115.918 14.6914C115.328 14.1023 114.997 13.3033 114.997 12.4702V9.08252C114.997 8.66988 115.078 8.26125 115.236 7.87998C115.394 7.49871 115.625 7.15227 115.917 6.86044C116.209 6.56861 116.555 6.33712 116.936 6.17918C117.317 6.02123 117.726 5.93994 118.139 5.93994Z" fill="#09233F"/>
<path d="M62.3047 9.43506V9.6001H67.3477V11.9146H62.3047V12.0806C62.3047 12.4432 62.4487 12.7909 62.7051 13.0473C62.9615 13.3037 63.3093 13.4478 63.6719 13.4478H69.665V15.7622H63.0957C62.2708 15.7622 61.4797 15.4345 60.8964 14.8512C60.3131 14.2679 59.9854 13.4768 59.9854 12.6519V8.8667C59.9854 8.04178 60.3131 7.25065 60.8964 6.66735C61.4797 6.08404 62.2708 5.75635 63.0957 5.75635H69.6572V8.0708H63.6641C63.3033 8.07286 62.958 8.21741 62.7034 8.47295C62.4488 8.72849 62.3055 9.07432 62.3047 9.43506Z" fill="#09233F"/>
<path d="M57.9219 5.75635V15.7593H55.6074V11.9146H50.4971V15.7593H48.1826V5.75635H50.4971V9.6001H55.6074V5.75635H57.9219Z" fill="#09233F"/>
<path d="M16.3086 4.19092C16.311 7.23131 15.8162 10.2516 14.8437 13.1323C14.7031 13.5503 14.5524 13.9637 14.3916 14.3726C14.0193 15.3198 13.5955 16.246 13.1221 17.147C10.2403 16.1737 7.2185 15.6788 4.17676 15.6821C2.78095 15.6817 1.38708 15.7858 0.00683594 15.9937L8.01465 7.98584L15.998 0.000488281C16.2062 1.38757 16.31 2.78831 16.3086 4.19092Z" fill="#09233F"/>
<path d="M15.6875 27.8091C15.6868 29.2108 15.7916 30.6106 16.001 31.9966L0 16.0005L0.00683594 15.9937C1.38965 15.7854 2.78616 15.6813 4.18457 15.6821C7.22631 15.6788 10.2481 16.1737 13.1299 17.147C13.5459 17.2863 13.9577 17.4361 14.3652 17.5962C15.3164 17.9676 16.2462 18.3914 17.1504 18.8657C16.1778 21.747 15.6836 24.7681 15.6875 27.8091Z" fill="#30C0CF"/>
<path d="M31.9922 16.0073L23.9844 24.0151L15.999 32.0015C15.3351 27.5966 15.7291 23.097 17.1484 18.8745C17.2891 18.4559 17.4395 18.0422 17.5996 17.6333C17.9711 16.6857 18.395 15.7595 18.8691 14.8589C21.7507 15.8317 24.7721 16.3266 27.8135 16.3237C29.2123 16.3225 30.6091 16.2167 31.9922 16.0073Z" fill="#09233F"/>
<path d="M31.999 16.0005L31.9922 16.0073C30.609 16.2148 29.2122 16.3186 27.8135 16.3179C24.7721 16.3207 21.7507 15.8259 18.8691 14.853C18.4521 14.7124 18.042 14.5601 17.6348 14.4028C16.6837 14.0313 15.7539 13.6075 14.8496 13.1333C15.822 10.2526 16.3168 7.23229 16.3145 4.19189C16.3139 2.78881 16.2082 1.38775 15.998 0.000488281L23.9785 7.98193L24.0146 8.01904L31.999 16.0005Z" fill="#30C0CF"/>
</g>
<defs>
<clipPath id="clip0_386_398">
<rect width="125" height="31.999" fill="white" transform="translate(0 0.000488281)"/>
</clipPath>
</defs>
</svg>
